<mxfile host="app.diagrams.net" agent="Mozilla/5.0 (Windows NT 10.0; Win64; x64) AppleWebKit/537.36 (KHTML, like Gecko) Chrome/128.0.0.0 Safari/537.36 Edg/128.0.0.0" version="24.8.0">
  <diagram id="C5RBs43oDa-KdzZeNtuy" name="Page-1">
    <mxGraphModel dx="969" dy="618" grid="0" gridSize="10" guides="1" tooltips="1" connect="1" arrows="1" fold="1" page="1" pageScale="1" pageWidth="827" pageHeight="1169" math="0" shadow="0">
      <root>
        <mxCell id="WIyWlLk6GJQsqaUBKTNV-0" />
        <mxCell id="WIyWlLk6GJQsqaUBKTNV-1" parent="WIyWlLk6GJQsqaUBKTNV-0" />
        <mxCell id="WIyWlLk6GJQsqaUBKTNV-8" value="Yes" style="rounded=0;html=1;jettySize=auto;orthogonalLoop=1;fontSize=11;endArrow=block;endFill=0;endSize=8;strokeWidth=1;shadow=0;labelBackgroundColor=none;edgeStyle=orthogonalEdgeStyle;entryX=0.5;entryY=0;entryDx=0;entryDy=0;" parent="WIyWlLk6GJQsqaUBKTNV-1" source="WIyWlLk6GJQsqaUBKTNV-10" target="WIyWlLk6GJQsqaUBKTNV-12" edge="1">
          <mxGeometry x="-0.2" y="20" relative="1" as="geometry">
            <mxPoint as="offset" />
            <mxPoint x="220" y="390" as="targetPoint" />
          </mxGeometry>
        </mxCell>
        <mxCell id="WIyWlLk6GJQsqaUBKTNV-9" value="No" style="edgeStyle=orthogonalEdgeStyle;rounded=0;html=1;jettySize=auto;orthogonalLoop=1;fontSize=11;endArrow=block;endFill=0;endSize=8;strokeWidth=1;shadow=0;labelBackgroundColor=none;entryX=1;entryY=0.5;entryDx=0;entryDy=0;exitX=1;exitY=0.5;exitDx=0;exitDy=0;" parent="WIyWlLk6GJQsqaUBKTNV-1" source="WIyWlLk6GJQsqaUBKTNV-10" target="xYZeI8otNgvoqHjESLyt-1" edge="1">
          <mxGeometry y="10" relative="1" as="geometry">
            <mxPoint as="offset" />
          </mxGeometry>
        </mxCell>
        <mxCell id="xYZeI8otNgvoqHjESLyt-10" value="查询" style="edgeStyle=orthogonalEdgeStyle;rounded=0;orthogonalLoop=1;jettySize=auto;html=1;entryX=0;entryY=0.5;entryDx=0;entryDy=0;exitX=0;exitY=0.5;exitDx=0;exitDy=0;" edge="1" parent="WIyWlLk6GJQsqaUBKTNV-1" source="WIyWlLk6GJQsqaUBKTNV-12" target="WIyWlLk6GJQsqaUBKTNV-10">
          <mxGeometry x="0.0526" y="-20" relative="1" as="geometry">
            <mxPoint x="120" y="230" as="sourcePoint" />
            <mxPoint x="130" y="450" as="targetPoint" />
            <Array as="points">
              <mxPoint x="120" y="400" />
              <mxPoint x="120" y="300" />
            </Array>
            <mxPoint as="offset" />
          </mxGeometry>
        </mxCell>
        <mxCell id="WIyWlLk6GJQsqaUBKTNV-10" value="检测" style="rhombus;whiteSpace=wrap;html=1;shadow=0;fontFamily=Helvetica;fontSize=12;align=center;strokeWidth=1;spacing=6;spacingTop=-4;fillColor=#ffe6cc;strokeColor=#d79b00;" parent="WIyWlLk6GJQsqaUBKTNV-1" vertex="1">
          <mxGeometry x="170" y="260" width="100" height="80" as="geometry" />
        </mxCell>
        <mxCell id="xYZeI8otNgvoqHjESLyt-4" value="存入" style="edgeStyle=orthogonalEdgeStyle;rounded=0;orthogonalLoop=1;jettySize=auto;html=1;exitX=0.5;exitY=1;exitDx=0;exitDy=0;" edge="1" parent="WIyWlLk6GJQsqaUBKTNV-1" source="WIyWlLk6GJQsqaUBKTNV-12">
          <mxGeometry x="0.1923" y="20" relative="1" as="geometry">
            <mxPoint x="220" y="470" as="targetPoint" />
            <mxPoint as="offset" />
          </mxGeometry>
        </mxCell>
        <mxCell id="WIyWlLk6GJQsqaUBKTNV-12" value="字典" style="rounded=1;whiteSpace=wrap;html=1;fontSize=12;glass=0;strokeWidth=1;shadow=0;fillColor=#fff2cc;strokeColor=#d6b656;" parent="WIyWlLk6GJQsqaUBKTNV-1" vertex="1">
          <mxGeometry x="160" y="380" width="120" height="40" as="geometry" />
        </mxCell>
        <mxCell id="xYZeI8otNgvoqHjESLyt-5" value="1 注册" style="rounded=0;orthogonalLoop=1;jettySize=auto;html=1;exitX=0.5;exitY=1;exitDx=0;exitDy=0;entryX=0.5;entryY=0;entryDx=0;entryDy=0;" edge="1" parent="WIyWlLk6GJQsqaUBKTNV-1" source="xYZeI8otNgvoqHjESLyt-0" target="xYZeI8otNgvoqHjESLyt-1">
          <mxGeometry x="0.0605" y="-17" relative="1" as="geometry">
            <mxPoint as="offset" />
          </mxGeometry>
        </mxCell>
        <mxCell id="xYZeI8otNgvoqHjESLyt-8" style="edgeStyle=orthogonalEdgeStyle;rounded=0;orthogonalLoop=1;jettySize=auto;html=1;exitX=0.5;exitY=1;exitDx=0;exitDy=0;entryX=0.5;entryY=0;entryDx=0;entryDy=0;" edge="1" parent="WIyWlLk6GJQsqaUBKTNV-1" source="xYZeI8otNgvoqHjESLyt-0" target="xYZeI8otNgvoqHjESLyt-9">
          <mxGeometry relative="1" as="geometry">
            <mxPoint x="380" y="160" as="targetPoint" />
          </mxGeometry>
        </mxCell>
        <mxCell id="xYZeI8otNgvoqHjESLyt-19" value="2 登录" style="edgeLabel;html=1;align=center;verticalAlign=middle;resizable=0;points=[];" vertex="1" connectable="0" parent="xYZeI8otNgvoqHjESLyt-8">
          <mxGeometry x="-0.0701" relative="1" as="geometry">
            <mxPoint x="20" y="4" as="offset" />
          </mxGeometry>
        </mxCell>
        <mxCell id="xYZeI8otNgvoqHjESLyt-20" style="rounded=0;orthogonalLoop=1;jettySize=auto;html=1;exitX=0.5;exitY=1;exitDx=0;exitDy=0;entryX=0.5;entryY=0;entryDx=0;entryDy=0;" edge="1" parent="WIyWlLk6GJQsqaUBKTNV-1" source="xYZeI8otNgvoqHjESLyt-0" target="xYZeI8otNgvoqHjESLyt-21">
          <mxGeometry relative="1" as="geometry">
            <mxPoint x="510" y="160" as="targetPoint" />
          </mxGeometry>
        </mxCell>
        <mxCell id="xYZeI8otNgvoqHjESLyt-22" value="3 退出" style="edgeLabel;html=1;align=center;verticalAlign=middle;resizable=0;points=[];" vertex="1" connectable="0" parent="xYZeI8otNgvoqHjESLyt-20">
          <mxGeometry x="-0.0364" y="2" relative="1" as="geometry">
            <mxPoint x="20" y="-5" as="offset" />
          </mxGeometry>
        </mxCell>
        <mxCell id="xYZeI8otNgvoqHjESLyt-0" value="开始" style="ellipse;whiteSpace=wrap;html=1;fillColor=#d5e8d4;strokeColor=#82b366;" vertex="1" parent="WIyWlLk6GJQsqaUBKTNV-1">
          <mxGeometry x="330" y="60" width="100" height="60" as="geometry" />
        </mxCell>
        <mxCell id="xYZeI8otNgvoqHjESLyt-6" style="edgeStyle=orthogonalEdgeStyle;rounded=0;orthogonalLoop=1;jettySize=auto;html=1;exitX=0.5;exitY=1;exitDx=0;exitDy=0;entryX=0.5;entryY=0;entryDx=0;entryDy=0;" edge="1" parent="WIyWlLk6GJQsqaUBKTNV-1" source="xYZeI8otNgvoqHjESLyt-1" target="WIyWlLk6GJQsqaUBKTNV-10">
          <mxGeometry relative="1" as="geometry" />
        </mxCell>
        <mxCell id="xYZeI8otNgvoqHjESLyt-1" value="用户输入" style="rounded=0;whiteSpace=wrap;html=1;fillColor=#dae8fc;strokeColor=#6c8ebf;" vertex="1" parent="WIyWlLk6GJQsqaUBKTNV-1">
          <mxGeometry x="175" y="175" width="90" height="45" as="geometry" />
        </mxCell>
        <mxCell id="xYZeI8otNgvoqHjESLyt-11" style="edgeStyle=orthogonalEdgeStyle;rounded=0;orthogonalLoop=1;jettySize=auto;html=1;exitX=0;exitY=0.5;exitDx=0;exitDy=0;entryX=0;entryY=0.5;entryDx=0;entryDy=0;" edge="1" parent="WIyWlLk6GJQsqaUBKTNV-1" source="xYZeI8otNgvoqHjESLyt-7" target="WIyWlLk6GJQsqaUBKTNV-10">
          <mxGeometry relative="1" as="geometry">
            <Array as="points">
              <mxPoint x="120" y="490" />
              <mxPoint x="120" y="300" />
            </Array>
          </mxGeometry>
        </mxCell>
        <mxCell id="xYZeI8otNgvoqHjESLyt-15" style="edgeStyle=orthogonalEdgeStyle;rounded=0;orthogonalLoop=1;jettySize=auto;html=1;exitX=0.25;exitY=0;exitDx=0;exitDy=0;entryX=0;entryY=0.5;entryDx=0;entryDy=0;" edge="1" parent="WIyWlLk6GJQsqaUBKTNV-1" source="xYZeI8otNgvoqHjESLyt-7" target="xYZeI8otNgvoqHjESLyt-13">
          <mxGeometry relative="1" as="geometry">
            <Array as="points">
              <mxPoint x="300" y="470" />
              <mxPoint x="300" y="300" />
            </Array>
          </mxGeometry>
        </mxCell>
        <mxCell id="xYZeI8otNgvoqHjESLyt-18" value="查询" style="edgeLabel;html=1;align=center;verticalAlign=middle;resizable=0;points=[];" vertex="1" connectable="0" parent="xYZeI8otNgvoqHjESLyt-15">
          <mxGeometry x="-0.0387" y="2" relative="1" as="geometry">
            <mxPoint x="12" y="-37" as="offset" />
          </mxGeometry>
        </mxCell>
        <mxCell id="xYZeI8otNgvoqHjESLyt-7" value="数据库" style="rounded=1;whiteSpace=wrap;html=1;fillColor=#e1d5e7;strokeColor=#9673a6;" vertex="1" parent="WIyWlLk6GJQsqaUBKTNV-1">
          <mxGeometry x="160" y="470" width="430" height="40" as="geometry" />
        </mxCell>
        <mxCell id="xYZeI8otNgvoqHjESLyt-12" style="edgeStyle=orthogonalEdgeStyle;rounded=0;orthogonalLoop=1;jettySize=auto;html=1;exitX=0.5;exitY=1;exitDx=0;exitDy=0;entryX=0.5;entryY=0;entryDx=0;entryDy=0;" edge="1" parent="WIyWlLk6GJQsqaUBKTNV-1" source="xYZeI8otNgvoqHjESLyt-9" target="xYZeI8otNgvoqHjESLyt-13">
          <mxGeometry relative="1" as="geometry">
            <mxPoint x="380" y="280" as="targetPoint" />
          </mxGeometry>
        </mxCell>
        <mxCell id="xYZeI8otNgvoqHjESLyt-9" value="用户输入" style="rounded=0;whiteSpace=wrap;html=1;fillColor=#dae8fc;strokeColor=#6c8ebf;" vertex="1" parent="WIyWlLk6GJQsqaUBKTNV-1">
          <mxGeometry x="335" y="175" width="90" height="45" as="geometry" />
        </mxCell>
        <mxCell id="xYZeI8otNgvoqHjESLyt-13" value="验证" style="rhombus;whiteSpace=wrap;html=1;fillColor=#ffe6cc;strokeColor=#d79b00;" vertex="1" parent="WIyWlLk6GJQsqaUBKTNV-1">
          <mxGeometry x="325" y="260" width="110" height="80" as="geometry" />
        </mxCell>
        <mxCell id="xYZeI8otNgvoqHjESLyt-16" value="Yes" style="rounded=0;html=1;jettySize=auto;orthogonalLoop=1;fontSize=11;endArrow=block;endFill=0;endSize=8;strokeWidth=1;shadow=0;labelBackgroundColor=none;edgeStyle=orthogonalEdgeStyle;exitX=0.5;exitY=1;exitDx=0;exitDy=0;entryX=0.5;entryY=0;entryDx=0;entryDy=0;" edge="1" parent="WIyWlLk6GJQsqaUBKTNV-1" source="xYZeI8otNgvoqHjESLyt-13" target="xYZeI8otNgvoqHjESLyt-17">
          <mxGeometry x="-0.2" y="20" relative="1" as="geometry">
            <mxPoint as="offset" />
            <mxPoint x="230" y="350" as="sourcePoint" />
            <mxPoint x="380" y="390" as="targetPoint" />
          </mxGeometry>
        </mxCell>
        <mxCell id="xYZeI8otNgvoqHjESLyt-17" value="登录成功" style="rounded=1;whiteSpace=wrap;html=1;fillColor=#d5e8d4;strokeColor=#82b366;" vertex="1" parent="WIyWlLk6GJQsqaUBKTNV-1">
          <mxGeometry x="320" y="380" width="120" height="40" as="geometry" />
        </mxCell>
        <mxCell id="xYZeI8otNgvoqHjESLyt-21" value="退出程序" style="rounded=0;whiteSpace=wrap;html=1;fillColor=#dae8fc;strokeColor=#6c8ebf;" vertex="1" parent="WIyWlLk6GJQsqaUBKTNV-1">
          <mxGeometry x="500" y="175" width="90" height="45" as="geometry" />
        </mxCell>
      </root>
    </mxGraphModel>
  </diagram>
</mxfile>
